<svg xmlns="http://www.w3.org/2000/svg" version="1.1" xmlns:xlink="http://www.w3.org/1999/xlink" xmlns:svgjs="http://svgjs.dev/svgjs" width="1500" height="420" viewBox="0 0 1500 420"><g transform="matrix(1,0,0,1,-0.9090909090909918,-0.3693099965277611)"><svg viewBox="0 0 396 111" data-background-color="#06413d" preserveAspectRatio="xMidYMid meet" height="420" width="1500" xmlns="http://www.w3.org/2000/svg" xmlns:xlink="http://www.w3.org/1999/xlink"><g id="tight-bounds" transform="matrix(1,0,0,1,0.2400000000000091,0.09760335622519278)"><svg viewBox="0 0 395.52 110.80448317911133" height="110.80448317911133" width="395.52"><g><svg viewBox="0 0 595.0498042886437 166.70253344972318" height="110.80448317911133" width="395.52"><g transform="matrix(1,0,0,1,199.5298042886437,48.587810423796974)"><svg viewBox="0 0 395.52 69.52691260212923" height="69.52691260212923" width="395.52"><g id="textblocktransform"><svg viewBox="0 0 395.52 69.52691260212923" height="69.52691260212923" width="395.52" id="textblock"><g><svg viewBox="0 0 395.52 69.52691260212923" height="69.52691260212923" width="395.52"><g transform="matrix(1,0,0,1,0,0)"><svg width="395.52" viewBox="2.8 -34.95 201.92999999999998 35.5" height="69.52691260212923" data-palette-color="#efd9cc"><path d="M19.45 0.5L4.95 0.5Q4.05 0.5 3.58 0.18 3.1-0.15 2.95-0.78 2.8-1.4 2.8-2.15L2.8-2.15 2.8-31.85Q2.8-32.6 2.98-33.18 3.15-33.75 3.63-34.08 4.1-34.4 5-34.4L5-34.4 18.95-34.4Q21.75-34.4 23.88-33.15 26-31.9 27.2-29.75 28.4-27.6 28.35-25.05L28.35-25.05Q28.4-23.75 28.05-22.5 27.7-21.25 27.03-20.18 26.35-19.1 25.35-18.4L25.35-18.4Q26.7-17.55 27.65-16.2 28.6-14.85 29.1-13.2 29.6-11.55 29.6-9.75L29.6-9.75Q29.55-7.6 28.8-5.73 28.05-3.85 26.65-2.45 25.25-1.05 23.4-0.28 21.55 0.5 19.45 0.5L19.45 0.5ZM7.3-30.05L7.3-3.8 18.95-3.8Q20.9-3.8 22.3-4.55 23.7-5.3 24.45-6.75 25.2-8.2 25.2-10.3L25.2-10.3Q25.2-12.1 24.7-13.2 24.2-14.3 23.35-14.88 22.5-15.45 21.53-15.7 20.55-15.95 19.63-15.98 18.7-16 17.95-16L17.95-16 14.9-16Q13.9-16 13.45-16.5 13-17 13-18.1L13-18.1Q13-19.15 13.48-19.6 13.95-20.05 14.95-20.05L14.95-20.05 18-20.05Q18.8-20.05 19.8-20.1 20.8-20.15 21.78-20.5 22.75-20.85 23.38-21.83 24-22.8 24-24.6L24-24.6Q24-27.4 22.5-28.73 21-30.05 17.55-30.05L17.55-30.05 7.3-30.05ZM37.25 0.5L37.25 0.5Q36.3 0.5 35.82 0.23 35.35-0.05 35.22-0.58 35.1-1.1 35.1-1.8L35.1-1.8 35.1-21.5Q35.1-22.25 35.25-22.75 35.4-23.25 35.85-23.48 36.3-23.7 37.3-23.7L37.3-23.7Q38.2-23.7 38.67-23.48 39.15-23.25 39.32-22.83 39.5-22.4 39.5-21.85L39.5-21.85 39.3-20.35Q39.65-21 40.12-21.65 40.6-22.3 41.32-22.83 42.05-23.35 43.07-23.7 44.1-24.05 45.6-24.05L45.6-24.05Q46.35-24.05 47.02-23.93 47.7-23.8 48.32-23.55 48.95-23.3 49.4-22.98 49.85-22.65 50.12-22.28 50.4-21.9 50.4-21.4L50.4-21.4Q50.4-20.3 49.7-19.53 49-18.75 48.25-18.75L48.25-18.75Q47.6-18.75 47.3-18.93 47-19.1 46.72-19.3 46.45-19.5 45.95-19.68 45.45-19.85 44.35-19.85L44.35-19.85Q43.6-19.85 42.77-19.55 41.95-19.25 41.2-18.68 40.45-18.1 39.97-17.2 39.5-16.3 39.5-15.1L39.5-15.1 39.5-1.7Q39.5-1 39.35-0.5 39.2 0 38.72 0.25 38.25 0.5 37.25 0.5ZM75.95 0.45L75.95 0.45Q74.85 0.45 74.37 0 73.9-0.45 73.8-1.4L73.8-1.4 74-3.9Q73.5-3.1 72.45-2.08 71.4-1.05 69.7-0.28 68 0.5 65.55 0.5L65.55 0.5Q63.15 0.5 61.07-0.45 59-1.4 57.42-3.1 55.85-4.8 54.97-7 54.1-9.2 54.1-11.7L54.1-11.7Q54.1-14.15 54.97-16.32 55.85-18.5 57.45-20.15 59.05-21.8 61.12-22.75 63.2-23.7 65.55-23.7L65.55-23.7Q67.75-23.7 69.3-23.13 70.85-22.55 71.97-21.63 73.1-20.7 73.95-19.55L73.95-19.55 73.85-21.65Q73.8-22.75 74.32-23.23 74.85-23.7 76-23.7L76-23.7Q76.95-23.7 77.37-23.4 77.8-23.1 77.95-22.55 78.1-22 78.1-21.2L78.1-21.2 78.1-1.9Q78.1-1.2 77.95-0.65 77.8-0.1 77.35 0.18 76.9 0.45 75.95 0.45ZM66.3-3.7L66.3-3.7Q68.3-3.7 69.97-4.75 71.65-5.8 72.62-7.58 73.6-9.35 73.6-11.65L73.6-11.65Q73.6-14 72.57-15.78 71.55-17.55 69.87-18.57 68.2-19.6 66.2-19.6L66.2-19.6Q63.85-19.6 62.12-18.53 60.4-17.45 59.4-15.65 58.4-13.85 58.4-11.55L58.4-11.55Q58.4-9.3 59.4-7.53 60.4-5.75 62.17-4.73 63.95-3.7 66.3-3.7ZM86.24 0.45L86.24 0.45Q85.29 0.45 84.82 0.18 84.34-0.1 84.22-0.6 84.09-1.1 84.09-1.8L84.09-1.8 84.09-21.65Q84.09-22.3 84.24-22.75 84.39-23.2 84.87-23.45 85.34-23.7 86.29-23.7L86.29-23.7Q87.04-23.7 87.47-23.53 87.89-23.35 88.07-23.05 88.24-22.75 88.29-22.4 88.34-22.05 88.34-21.75L88.34-21.75 88.24-19.45Q88.74-20.3 89.49-21.08 90.24-21.85 91.24-22.48 92.24-23.1 93.42-23.45 94.59-23.8 95.94-23.8L95.94-23.8Q98.14-23.8 99.99-23.03 101.84-22.25 103.17-20.78 104.49-19.3 105.22-17.25 105.94-15.2 105.94-12.6L105.94-12.6 105.94-1.75Q105.94-1.05 105.82-0.55 105.69-0.05 105.22 0.2 104.74 0.45 103.79 0.45L103.79 0.45Q102.79 0.45 102.32 0.18 101.84-0.1 101.69-0.6 101.54-1.1 101.54-1.8L101.54-1.8 101.54-12.65Q101.54-14.75 100.84-16.3 100.14-17.85 98.74-18.73 97.34-19.6 95.19-19.6L95.19-19.6Q93.14-19.6 91.62-18.73 90.09-17.85 89.27-16.3 88.44-14.75 88.44-12.65L88.44-12.65 88.44-1.75Q88.44-1.05 88.29-0.55 88.14-0.05 87.67 0.2 87.19 0.45 86.24 0.45ZM116.84 0.55L116.84 0.55Q115.94 0.55 115.47 0.25 114.99-0.05 114.84-0.58 114.69-1.1 114.69-1.8L114.69-1.8 114.69-26.9Q114.69-28.9 115.14-30.4 115.59-31.9 116.64-32.9 117.69-33.9 119.32-34.43 120.94-34.95 123.34-34.95L123.34-34.95Q123.99-34.95 124.52-34.83 125.04-34.7 125.32-34.23 125.59-33.75 125.59-32.8L125.59-32.8Q125.59-31.85 125.29-31.38 124.99-30.9 124.49-30.75 123.99-30.6 123.29-30.6L123.29-30.6Q122.14-30.6 121.32-30.5 120.49-30.4 120.04-30.05 119.59-29.7 119.37-28.98 119.14-28.25 119.14-27L119.14-27 119.14-1.65Q119.14-1 118.97-0.5 118.79 0 118.32 0.28 117.84 0.55 116.84 0.55ZM112.14-23.15L112.14-23.15 116.94-23.1 123.89-23.2Q124.59-23.2 125.09-23.08 125.59-22.95 125.87-22.48 126.14-22 126.14-21.05L126.14-21.05Q126.14-20.1 125.89-19.63 125.64-19.15 125.14-19 124.64-18.85 123.94-18.85L123.94-18.85 117.09-18.95 112.04-18.9Q110.99-18.9 110.62-19.4 110.24-19.9 110.24-21.05L110.24-21.05Q110.24-22.15 110.69-22.65 111.14-23.15 112.14-23.15ZM133.24 0.5L133.24 0.5Q132.29 0.5 131.81 0.23 131.34-0.05 131.19-0.55 131.04-1.05 131.04-1.75L131.04-1.75 131.04-21.5Q131.04-22.2 131.19-22.7 131.34-23.2 131.81-23.45 132.29-23.7 133.29-23.7L133.29-23.7Q134.24-23.7 134.69-23.43 135.14-23.15 135.29-22.65 135.44-22.15 135.44-21.4L135.44-21.4 135.44-1.7Q135.44-1 135.29-0.5 135.14 0 134.66 0.25 134.19 0.5 133.24 0.5ZM133.24-29.7L133.24-29.7Q132.14-29.7 131.59-30.03 131.04-30.35 130.86-30.95 130.69-31.55 130.69-32.35L130.69-32.35Q130.69-33.15 130.89-33.73 131.09-34.3 131.64-34.58 132.19-34.85 133.29-34.85L133.29-34.85Q134.34-34.85 134.89-34.55 135.44-34.25 135.61-33.65 135.79-33.05 135.79-32.25L135.79-32.25Q135.79-31.45 135.61-30.88 135.44-30.3 134.89-30 134.34-29.7 133.24-29.7ZM149.59 0.5L149.59 0.5Q147.99 0.5 146.71 0.23 145.44-0.05 144.49-0.65 143.53-1.25 142.91-2.2 142.28-3.15 142.01-4.5 141.74-5.85 141.74-7.65L141.74-7.65 141.74-32.65Q141.74-33.4 141.86-33.9 141.99-34.4 142.49-34.68 142.99-34.95 143.89-34.95L143.89-34.95Q144.89-34.95 145.36-34.7 145.84-34.45 145.99-33.95 146.14-33.45 146.14-32.75L146.14-32.75 146.14-7.7Q146.14-6.7 146.34-5.98 146.53-5.25 146.96-4.75 147.39-4.25 148.03-4.05 148.69-3.85 149.59-3.85L149.59-3.85Q150.19-3.85 150.61-3.7 151.03-3.55 151.28-3.1 151.53-2.65 151.53-1.7L151.53-1.7Q151.53-0.7 151.28-0.23 151.03 0.25 150.61 0.38 150.19 0.5 149.59 0.5ZM165.63 0.55L165.63 0.55Q163.43 0.55 161.56-0.25 159.68-1.05 158.28-2.5 156.88-3.95 156.11-6 155.33-8.05 155.33-10.65L155.33-10.65 155.33-21.5Q155.33-22.2 155.48-22.7 155.63-23.2 156.11-23.48 156.58-23.75 157.53-23.75L157.53-23.75Q158.48-23.75 158.96-23.45 159.43-23.15 159.58-22.65 159.73-22.15 159.73-21.45L159.73-21.45 159.73-10.6Q159.73-8.55 160.43-6.98 161.13-5.4 162.56-4.55 163.98-3.7 166.03-3.7L166.03-3.7Q168.13-3.7 169.66-4.55 171.18-5.4 172.01-6.98 172.83-8.55 172.83-10.6L172.83-10.6 172.83-21.5Q172.83-22.2 172.98-22.7 173.13-23.2 173.61-23.48 174.08-23.75 175.03-23.75L175.03-23.75Q175.98-23.75 176.46-23.45 176.93-23.15 177.06-22.65 177.18-22.15 177.18-21.45L177.18-21.45 177.18-1.6Q177.18-1 177.06-0.53 176.93-0.05 176.46 0.2 175.98 0.45 175.03 0.45L175.03 0.45Q174.33 0.45 173.91 0.3 173.48 0.15 173.28-0.1 173.08-0.35 173.01-0.68 172.93-1 172.93-1.35L172.93-1.35 173.13-3.5Q172.63-2.9 171.93-2.2 171.23-1.5 170.31-0.88 169.38-0.25 168.23 0.15 167.08 0.55 165.63 0.55ZM202.48 0.5L184.08 0.5Q183.03 0.5 182.46-0.05 181.88-0.6 181.88-1.65L181.88-1.65Q181.88-2.2 182.06-2.63 182.23-3.05 182.63-3.4L182.63-3.4 197.33-19.3 185.28-19.3Q184.58-19.3 184.08-19.43 183.58-19.55 183.31-20.05 183.03-20.55 183.03-21.5L183.03-21.5Q183.03-22.5 183.31-22.98 183.58-23.45 184.08-23.58 184.58-23.7 185.28-23.7L185.28-23.7 201.88-23.7Q202.98-23.7 203.53-23.15 204.08-22.6 204.08-21.6L204.08-21.6Q204.08-21.1 203.93-20.7 203.78-20.3 203.53-20.05L203.53-20.05 188.83-3.95 202.53-3.95Q203.23-3.95 203.73-3.78 204.23-3.6 204.48-3.13 204.73-2.65 204.73-1.65L204.73-1.65Q204.73-0.7 204.46-0.23 204.18 0.25 203.68 0.38 203.18 0.5 202.48 0.5L202.48 0.5Z" opacity="1" transform="matrix(1,0,0,1,0,0)" fill="#efd9cc" class="wordmark-text-0" data-fill-palette-color="primary" id="text-0"></path></svg></g></svg></g></svg></g></svg></g><g><svg viewBox="0 0 166.70253344972318 166.70253344972318" height="166.70253344972318" width="166.70253344972318"><g><svg></svg></g><g id="icon-0"><svg viewBox="0 0 166.70253344972318 166.70253344972318" height="166.70253344972318" width="166.70253344972318"><g><path d="M0 83.351c0-46.034 37.318-83.351 83.351-83.351 46.034 0 83.351 37.318 83.352 83.351 0 46.034-37.318 83.351-83.352 83.352-46.034 0-83.351-37.318-83.351-83.352zM83.351 160.433c42.571 0 77.081-34.51 77.082-77.082 0-42.571-34.51-77.081-77.082-77.081-42.571 0-77.081 34.51-77.081 77.081 0 42.571 34.51 77.081 77.081 77.082z" data-fill-palette-color="accent" fill="#efd9cc" stroke="transparent"></path></g><g transform="matrix(1,0,0,1,45.55505251827896,37.48854010400302)"><svg viewBox="0 0 75.59242841316525 91.72545324171713" height="91.72545324171713" width="75.59242841316525"><g><svg xmlns="http://www.w3.org/2000/svg" xmlns:xlink="http://www.w3.org/1999/xlink" version="1.1" x="0" y="0" viewBox="7.825 2.277 78.92642887770072 95.77100000000002" enable-background="new 0 0 100 100" xml:space="preserve" height="91.72545324171713" width="75.59242841316525" class="icon-cg-0" data-fill-palette-color="accent" id="cg-0"><path fill="none" d="M51.15 57.239c0.021 0 0.043 0 0.064 0-0.11 0-0.222-0.001-0.333-0.003C50.973 57.239 51.063 57.239 51.15 57.239z"></path><path fill="none" d="M75.233 85.507c0.054 0.712 1.653 1.047 2.368 1.052 0.694 0.005 2.102-0.144 2.102-0.927 0-0.824 0-2.152 0-3.091-3.357-0.458-4.263-0.582-4.47-0.61C75.233 81.931 75.151 84.415 75.233 85.507z"></path><path fill="#efd9cc" d="M75.233 81.931C75.234 81.931 75.109 81.914 75.233 81.931L75.233 81.931z" data-fill-palette-color="accent"></path><path fill="#efd9cc" d="M7.894 39.835c-0.048-0.103-0.069-0.159-0.069-0.159S7.827 39.754 7.894 39.835z" data-fill-palette-color="accent"></path><path fill="#efd9cc" d="M86.018 80.974c-1.22-1.307-8.452-6.186-16.903-9.584-5.041-2.027-10.244-2.875-13.626-3.229-0.04-0.29-0.078-0.818 0.035-1.496 0.175-1.047-1.83-1.222-1.83-1.222l0.611-10.279-1.221-0.697V2.277h-2.677v52.189l-1.22 0.697 0.61 10.279c0 0-2.003 0.175-1.83 1.222 0.113 0.678 0.075 1.206 0.034 1.496-3.381 0.354-8.586 1.203-13.625 3.229-8.452 3.398-15.564 8.396-16.902 9.584-0.983 0.871-0.692 1.453-0.406 1.716-0.66-0.289 2.296 1.959 7.899 2.553 5.618 0.596 9.562 0.776 9.741 0.783-0.049 0.023-0.232 0.241-0.854 1.831-0.784 2.005-0.436 2.525-0.436 2.525s1.917 1.482 4.966 1.831c3.05 0.35 5.403 0.87 5.403 0.87s0.087 1.133 0.522 2.614c0.436 1.481 1.307 1.568 1.307 1.568s3.284 0.697 6.129 0.784c2.845-0.087 6.13-0.784 6.13-0.784s0.87-0.087 1.307-1.568c0.435-1.481 0.522-2.614 0.522-2.614s2.353-0.521 5.403-0.87c3.048-0.349 4.965-1.831 4.965-1.831s0.349-0.521-0.436-2.525c-0.622-1.59-0.805-1.808-0.854-1.831 0.179-0.007 4.123-0.188 9.741-0.783 5.751-0.609 5.803-0.913 7.388-1.852C86.75 82.896 87.236 82.28 86.018 80.974zM49.316 55.207l1.222-0.654c0 0 0.759 0.213 1.207 0.213 0.449 0 1.254-0.213 1.254-0.213l1.176 0.654c0 0-0.827 0.218-2.43 0.218C50.342 55.425 49.316 55.207 49.316 55.207zM49.601 65.657c0 0 1.418-0.127 2.145-0.127 0.729 0 2.104 0.175 2.104 0.175s1.789 0.839 1.394 0.785c-0.394-0.057-1.917-0.272-3.498-0.317-1.58-0.042-3.12 0.185-3.398 0.206C47.966 66.41 49.601 65.657 49.601 65.657zM24.269 84.438c-1.569-0.322-7.057-0.655-6.404-2.745 0.653-2.093 11.833-8.2 18.1-10.193 3.406-1.085 6.273-2.542 12.325-2.741 3.798-0.125 20.022 16.724 20.022 16.724s-20.315 0.646-24.636 0.523C36.983 85.818 26.016 84.794 24.269 84.438zM57.932 96.886c-0.997 0.847-13.459-3.628-13.459-3.628s5.287 0.523 7.323 0.523 7.293-0.523 7.293-0.523S58.92 96.047 57.932 96.886zM61.059 87.346c-4.466 0.447-9.142 0.444-9.313 0.447-0.172-0.003-3.081 0-7.676-0.447-5.348-0.521-9.223-1.242-8.876-1.324 0 0 15.056 0.742 16.552 0.742 2.109 0 16.61-0.583 16.61-0.583C68.742 86.288 66.552 86.797 61.059 87.346z" data-fill-palette-color="accent"></path></svg></g></svg></g></svg></g></svg></g></svg></g><defs></defs></svg><rect width="395.52" height="110.80448317911133" fill="none" stroke="none" visibility="hidden"></rect></g></svg></g></svg>