<svg xmlns="http://www.w3.org/2000/svg" version="1.0" width="512.000000pt" height="512.000000pt" viewBox="0 0 512.000000 512.000000" preserveAspectRatio="xMidYMid meet">

<g transform="translate(0.000000,512.000000) scale(0.100000,-0.100000)" fill="#508991" stroke="none" opacity="1">
<path d="M1442 4705 c-225 -49 -405 -239 -442 -467 -14 -88 -14 -1964 1 -2095 6 -54 20 -147 32 -208 l22 -109 -249 -436 c-137 -239 -251 -441 -253 -447 -5 -12 122 55 272 145 39 23 160 93 270 156 l200 114 30 -36 c16 -20 68 -77 115 -125 474 -492 1214 -617 1817 -308 43 22 95 50 116 63 l38 22 349 -349 350 -350 56 56 55 55 -541 534 c-298 294 -548 547 -557 564 -10 20 -14 44 -10 76 l6 47 -417 416 c-280 279 -426 418 -445 422 -72 18 -91 6 -274 -177 l-173 -173 -57 58 -58 57 170 170 c197 198 246 230 349 230 119 0 125 -5 594 -473 368 -368 426 -422 449 -419 14 2 47 -2 72 -9 42 -11 92 -58 591 -556 l546 -543 54 55 55 55 -352 353 -351 352 20 30 c79 122 162 328 197 486 39 183 42 281 39 1319 l-3 995 -27 74 c-71 194 -230 336 -423 376 -100 21 -2136 21 -2233 0z m2048 -1370 l0 -425 -905 0 -905 0 0 425 0 425 905 0 905 0 0 -425z m-1915 -1328 c74 -41 95 -132 53 -217 -17 -33 -44 -60 -103 -102 -95 -68 -546 -340 -553 -333 -9 9 248 437 345 573 25 36 60 70 81 82 52 27 126 26 177 -3z" fill="#508991"/>
<path d="M1840 3335 l0 -265 745 0 745 0 0 265 0 265 -745 0 -745 0 0 -265z" fill="#508991"/>
</g>
</svg>